<?xml version="1.0" encoding="UTF-8"?>
<svg id="Layer_1" data-name="Layer 1" xmlns="http://www.w3.org/2000/svg" viewBox="0 0 1024 1024">
  <defs>
    <style>
      .cls-1 {
        fill: #fff;
      }
    </style>
  </defs>
  <path class="cls-1" d="M1024,0v1024H0V0h1024ZM495.8,70.3C157.301,80.747-40.711,454.683,136.586,742.914c181.644,295.298,626.783,271.56,774.271-42.557C1052.524,398.639,827.115,60.075,495.8,70.3Z"/>
  <path d="M495.8,70.3c331.315-10.225,556.724,328.339,415.057,630.057-147.488,314.117-592.628,337.855-774.271,42.557C-40.711,454.683,157.301,80.747,495.8,70.3ZM661,564.011l71.644,70.909c11.992-7.587,35.118-36.847,50.062-28.13,32.566,23.012,61.002,63.452,93.715,86.186C1023.333,400.436,773.668,57.148,448.674,110.183,178.684,148.787,24.903,449.75,148.674,692.907c56.992-40.967,101.556-103.863,156.186-149.546,13.862-10.845,32.799,22.894,40.868,25.495,2.916.819,11.928-7.981,12.192-9.498.577-3.309-24.085-19.599-27.958-23.82-11.528-12.565-12.13-30.251-20.982-44.018-11.892-6.384-52.292,3.914-55.921-11.078-1.636-13.947-4.022-35.6-2.864-49.744,5.675-9.473,47.222-9.399,54.539-20.463.923-4.679,8.533-25.716,6.778-30.194-1.651-3.975-32.137-23.897-37.99-29.064-5.424-4.789-7.148-7.002-4.76-14.713,4.438-7.061,17.836-43.355,28.586-41.212.001,0,48.946,12.753,48.946,12.753,1.785-.39,2.959-1.607,4.239-2.773,1.96-1.785,18.315-20.938,18.731-22.335.804-2.698.469-2.741-.2-5.229-18.587-53.299-37.284-39.69,19.633-74.27,4.272-2.041,7.469-3.888,11.801-.199,7.966,5.313,30.628,34.497,37.457,36.571,5.523,1.42,29.682-7.175,33.603-9.508,5.496-5.696,7.221-41.451,11.192-50.809,5.208-8.114,49.943-4.175,56.652-2.16,10.219,12.789,2.033,47.394,16.046,54.957,1.902.948,24.392,7.584,26.325,7.767,2.982.283,3.47-.315,5.727-1.823,43.696-39.809,26.255-51.402,81.821-11.815,3.923,3.408,4.632,4.172,3.2,9.852,0,0-18.554,44.487-18.554,44.487-.134,1.784.726,3.014,1.582,4.439,4.478,4.165,18.041,24.865,25.679,22.853,0,0,47.301-12.83,47.301-12.83,3.689.042,6.298,2.939,8.299,5.69,2.787,3.832,17.155,32.289,18.389,36.603,1.794,6.276.878,8.463-3.742,12.703-7.043,6.463-36.057,23.068-38.991,30.062-.806,1.92,5.284,24.727,6.58,28.395,1.473,4.165,1.044,4.931,5.217,6.736,11.82,5.112,35.394,6.967,45.425,12.623,9.803,4.897,1.052,33.723,1.274,43.688-.314,2.589-1.243,11.942-2.26,13.242-5.298,6.381-50.964-.553-56.78,9.719-1.442,2.775-9.513,27.659-9.775,30.343,2.872,14.214,27.417,24.611,33.288,36.262,1.872,3.364,2.498,6.916.597,10.509-1.596,3.016-17.004,16.599-20.471,16.422-9.877-.502-24.984-23.602-32.288-25.767-5.917-1.754-16.001,1.781-22.292,1.8ZM499.805,308.305c-95.829,5.936-154.367,126.974-89.342,200.695,28.895-29.624,58.877-63.338,87.991-92.047,10.607-9.438,18.609-6.532,28.555,1.537,28.394,23.037,52.976,60.277,81.97,84.027,9.291,9.528,19.982-16.245,22.782-23.256,35.121-87.944-40.561-178.414-131.956-170.956ZM690.995,778.994c-34.127-54.18-82.979-102.578-117.509-156.979-2.427-10.574-3.596-21.444-5.98-32.021-1.181-5.241-3.485-21.957-8.962-22.526-4.943-.514-48.383,13.278-36.97-3.401,3.024-4.42,17.475-17.709,18.261-21.813-2.714-15.098-.845-34.033-3.931-48.659-1.445-6.847-11.164-18.241-15.938-24.062-2.331-2.843-10.301-13.328-12.427-14.593-4.274-4.464-16.678,12.749-20.567,15.533-35.609,35.744-76.246,76.928-109.485,114.516-4.112,4.65-12.96,12.083-10.941,17.955,11.283,11.608,21.978,24.682,33.813,35.696,2.183,2.032,8.843,8.295,11.236,8.379,2.501.088,37.349-23.002,42.537-26.385,38.535-32.301,13.079,9.827,6.348,27.348-2.85,5.945-15.695,24.478-15.461,29.436.36,7.63,38.431,43.864,41.963,41.58,3.395-8.903,22.043-29.143,30.578-32.936,23.007-1.842,29.921,32.416,47.703,41.19,8.601,3.58,14.29-14.076,22.966-12.048,32.652,21.394,64.904,53.145,102.763,63.79ZM303.994,583.005c-50.456,36.977-90.036,92.242-138.046,133.436l-.412,5.508c4.428,3.768,12.66,22.653,16.463,24.579,3.515,1.78,14.227-7.917,17.468-10.561,8.092-3.347,58.602-62.825,59.115-46.923-3.725,7.875-32.247,68.174-29.579,70.948l73.905-46.583c6.193-15.41,12.68-38.139,22.676-51.324,1.789-2.359,9.444-8.555,9.448-10.589.005-2.153-11.13-9.185-13.561-11.47-16.473-13.994-12.113-37.927-17.479-57.021ZM714.001,680.01c38.374,43.259,51.02,45.417,99.693,71.795,10.903,7.834,8.464,12.401,17.779.17,2.773-12.418-19.612-25.809-25.661-38.287-7.578-13.254-6.256-27.215-11.932-40.069-4.817-10.909-16.445-21.963-21.887-33.155-10.851-2.965-44.046,41.485-57.992,39.545ZM477.995,786.994c4.142-3.806-29.715-25.202-32.309-27.179-11.048-8.419-24.463-21.361-35.964-28.036-11.44-6.64-17.493,4.582-26.811,11.632-23.209,18.734-51.931,33.611-68.91,58.579,34.383-9.385,68.865-18.655,103.515-26.974,7.768-3.015,58.201,14.072,60.479,11.979Z"/>
  <path class="cls-1" d="M661,564.011c6.29-.02,16.374-3.554,22.292-1.8,7.304,2.165,22.411,25.265,32.288,25.767,3.467.176,18.876-13.406,20.471-16.422,1.901-3.593,1.275-7.146-.596-10.511-5.911-11.692-30.441-22.072-33.291-36.26.264-2.685,8.335-27.569,9.779-30.341,5.771-10.243,51.693-3.253,56.778-9.723,1.017-1.298,1.947-10.651,2.258-13.24-.091-9.892,8.355-38.864-1.271-43.688-10.033-5.656-33.607-7.51-45.427-12.622-4.173-1.805-3.744-2.571-5.217-6.736-1.297-3.668-7.386-26.474-6.58-28.395,2.934-6.994,31.949-23.599,38.991-30.062,4.62-4.24,5.536-6.427,3.742-12.703-1.233-4.314-15.602-32.771-18.389-36.603-2.001-2.751-4.61-5.647-8.299-5.69,0,0-47.3,12.83-47.3,12.83-7.627,2.052-21.141-18.687-25.681-22.852-.855-1.425-1.716-2.655-1.581-4.44,0,0,18.554-44.487,18.554-44.487,1.432-5.68.723-6.444-3.2-9.854-55.579-39.381-37.789-28.392-81.82,11.818-2.257,1.506-2.745,2.104-5.727,1.821-1.933-.183-24.423-6.819-26.325-7.768-14.006-7.587-5.833-42.164-16.046-54.954-6.783-2.031-51.344-5.802-56.652,2.156-3.97,9.36-5.695,45.115-11.19,50.811-3.916,2.473-27.961,10.96-33.603,9.511-6.829-2.075-29.492-31.26-37.458-36.573-4.332-3.689-7.529-1.842-11.803.198-56.399,34.563-38.737,20.264-19.63,74.271.667,2.488,1.002,2.531.198,5.229-.416,1.397-16.771,20.55-18.731,22.335-1.281,1.166-2.455,2.383-4.239,2.773,0,0-48.945-12.753-48.945-12.753-2.756-.386-6.545,1.724-8.368,3.718-2.119,2.316-19.2,34.204-20.219,37.493-2.389,7.71-.664,9.924,4.76,14.713,5.853,5.168,36.339,25.089,37.989,29.064.913,4.492-5.171,25.633-6.781,30.193-7.316,11.059-49.137,11.079-54.536,20.466-1.213,14.137,1.186,35.838,2.863,49.74,3.488,15.04,44.044,4.719,55.922,11.079,8.851,13.767,9.453,31.453,20.982,44.018,3.873,4.221,28.535,20.511,27.958,23.82-.264,1.516-9.277,10.317-12.193,9.498-7.866-2.605-27.098-36.33-40.869-25.499-54.619,45.675-99.218,108.597-156.183,149.552C24.938,449.744,178.659,148.788,448.679,110.179c324.931-53.002,574.739,290.248,427.74,582.801-32.665-22.629-61.127-63.248-93.712-86.188-14.856-8.72-38.081,20.556-50.062,28.128l-71.644-70.909Z"/>
  <path class="cls-1" d="M690.995,778.994c-37.902-10.677-70.091-42.386-102.764-63.789-8.676-2.029-14.365,15.627-22.967,12.049-17.774-8.761-24.7-43.045-47.701-41.194-8.553,3.767-27.158,24.017-30.578,32.938-3.533,2.284-41.604-33.95-41.964-41.58-.234-4.958,12.611-23.491,15.46-29.437,6.818-17.674,32.12-59.585-6.346-27.347-5.189,3.383-40.037,26.472-42.538,26.384-2.393-.084-9.053-6.347-11.236-8.379-11.835-11.014-22.53-24.088-33.813-35.696-2.018-5.872,6.83-13.305,10.941-17.955,33.239-37.588,73.875-78.771,109.485-114.515,3.978-2.98,16.213-19.787,20.566-15.535,2.126,1.266,10.096,11.751,12.427,14.594,4.773,5.822,14.493,17.215,15.938,24.062,3.086,14.626,1.216,33.56,3.931,48.659-.787,4.105-15.237,17.393-18.261,21.813-11.413,16.679,32.027,2.887,36.97,3.401,5.477.57,7.781,17.286,8.962,22.526,2.383,10.577,3.552,21.447,5.978,32.022,34.517,54.382,83.407,102.824,117.51,156.978Z"/>
  <path class="cls-1" d="M499.805,308.305c91.395-7.459,167.077,83.012,131.956,170.956-2.8,7.011-13.49,32.785-22.782,23.256-28.995-23.749-53.576-60.99-81.97-84.027-9.946-8.069-17.948-10.975-28.554-1.536-29.125,28.724-59.077,62.403-87.992,92.046-65.026-73.732-6.485-194.752,89.342-200.695Z"/>
  <path class="cls-1" d="M303.994,583.005c5.366,19.094,1.006,43.028,17.478,57.021,2.431,2.285,13.566,9.317,13.561,11.47-.004,2.034-7.659,8.23-9.448,10.589-9.996,13.185-16.483,35.914-22.676,51.324l-73.905,46.583c-2.669-2.774,25.853-63.073,29.579-70.948-.4-15.975-51.166,43.689-59.116,46.922-3.24,2.645-13.952,12.343-17.467,10.562-3.803-1.926-12.035-20.811-16.463-24.579l.412-5.508c47.991-41.177,87.606-96.476,138.046-133.436Z"/>
  <path class="cls-1" d="M714.001,680.01c13.866,1.988,47.212-42.552,57.992-39.545,5.442,11.192,17.069,22.246,21.887,33.155,5.677,12.854,4.354,26.815,11.93,40.07,5.998,12.361,28.539,26.074,25.664,38.285-9.319,12.159-6.772,7.779-17.783-.167-48.597-26.319-61.463-28.67-99.69-71.798Z"/>
  <path class="cls-1" d="M477.995,786.994c-2.278,2.093-52.711-14.994-60.479-11.979-34.65,8.319-69.132,17.589-103.515,26.974,16.976-24.966,45.703-39.846,68.909-58.58,9.319-7.049,15.372-18.271,26.812-11.631,11.501,6.675,24.917,19.617,35.964,28.036,2.594,1.977,36.451,23.374,32.309,27.179Z"/>
</svg>